<svg class="work-top__topblob" width="831px" height="337px" viewBox="0 0 831 337" version="1.1"
  xmlns="http://www.w3.org/2000/svg" xmlns:xlink="http://www.w3.org/1999/xlink">
  <defs>
    <linearGradient x1="102.372411%" y1="50%" x2="-2.22044605e-14%" y2="50%" id="linearGradient-4">
      <stop stop-color="#34e3d4" offset="0%"></stop>
      <stop stop-color="#be5cff" offset="100%"></stop>
    </linearGradient>
  </defs>
  <g id="Page-1" stroke="none" stroke-width="1" fill="none" fill-rule="evenodd">
    <g id="Work" transform="translate(-492.000000, 0.000000)" fill="url(#linearGradient-4)"
      fill-rule="nonzero">
      <path
        d="M1069.69011,-155.867055 C1125.64607,-121.450976 1197.37977,-102.961487 1258.8396,-49.1405985 C1320.29943,4.68029053 1371.48537,93.6495152 1364.33035,178.591326 C1357.17532,263.716202 1291.86279,344.630599 1210.40559,366.781374 C1128.94839,388.932148 1031.52998,352.136234 962.548201,313.143549 C893.566426,274.150864 852.837825,232.778344 769.912925,211.176763 C687.171488,189.575181 562.05029,187.561475 527.009016,141.795412 C492.151204,95.8462861 547.373316,6.32786876 591.037312,-74.4034647 C634.701308,-154.951734 666.807187,-226.712919 722.212762,-261.312062 C777.434874,-295.911205 855.773219,-293.348306 914.848037,-266.80399 C973.922855,-240.442738 1013.91761,-190.283134 1069.69011,-155.867055 Z"
        id="Mask"
        transform="translate(940.500000, 43.231724) rotate(164.000000) translate(-940.500000, -43.231724) "></path>
    </g>
  </g>
</svg>