<?xml version="1.0" encoding="UTF-8"?>
<svg width="208px" height="190px" viewBox="0 0 208 190" version="1.1" xmlns="http://www.w3.org/2000/svg" xmlns:xlink="http://www.w3.org/1999/xlink">
	<defs>
		<linearGradient x1="100%" y1="50%" x2="-2.22044605e-14%" y2="50%" id="linearGradient-1">
			<stop stop-color="#E100FF" offset="0%"></stop>
			<stop stop-color="#7F00FF" offset="100%"></stop>
		</linearGradient>
	</defs>
	<g id="Page-1" stroke="none" stroke-width="1" fill="none" fill-rule="evenodd">
		<g id="websites-blob" fill="url(#linearGradient-1)" fill-rule="nonzero">
			<path d="M151.160297,31.3400511 C172.447784,46.9168344 196.518624,61.4175899 204.507875,82.3232727 C212.497125,103.228956 204.404787,130.488326 187.137697,145.398997 C169.92215,160.309668 143.583394,162.76916 119.564099,171.274904 C95.596346,179.729408 73.948054,194.178924 59.773577,188.850024 C45.547556,183.469885 38.79535,158.36257 27.146507,136.739535 C15.497664,115.16774 -0.9447294,97.0802253 0.6015772,81.1447661 C2.1478838,65.2093069 21.734434,51.3746638 40.135483,35.2854863 C58.484988,19.1963089 75.597447,0.9038364 93.431517,0.0327662825 C111.265586,-0.838303835 129.821266,15.8145072 151.160297,31.3400511 Z" id="Path"></path>
		</g>
	</g>
</svg>