<svg class="contact-us__blobs-topleft" width="763px" height="379px" viewBox="0 0 763 379"
  version="1.1" xmlns="http://www.w3.org/2000/svg" xmlns:xlink="http://www.w3.org/1999/xlink">
  <defs>
    <linearGradient x1="101.97522%" y1="50%" x2="-2.22044605e-14%" y2="50%" id="linearGradient-1">
      <stop stop-color="#FC00FF" offset="0%"></stop>
      <stop stop-color="#00DBDE" offset="100%"></stop>
    </linearGradient>
  </defs>
  <g id="Page-1" stroke="none" stroke-width="1" fill="none" fill-rule="evenodd">
    <g id="Contact-" fill="url(#linearGradient-1)" fill-rule="nonzero">
      <path
        d="M501.690106,-113.867055 C557.646067,-79.4509765 629.379775,-60.9614874 690.839601,-7.14059845 C752.299427,46.6802905 803.485371,135.649515 796.330347,220.591326 C789.175322,305.716202 723.862791,386.630599 642.405589,408.781374 C560.948386,430.932148 463.529976,394.136234 394.548201,355.143549 C325.566426,316.150864 284.837825,274.778344 201.912925,253.176763 C119.171488,231.575181 -5.94971022,229.561475 -40.9909842,183.795412 C-75.8487959,137.846286 -20.6266836,48.3278688 23.0373122,-32.4034647 C66.701308,-112.951734 98.8071872,-184.712919 154.212762,-219.312062 C209.434874,-253.911205 287.773219,-251.348306 346.848037,-224.80399 C405.922855,-198.442738 445.917608,-148.283134 501.690106,-113.867055 Z"
        id="Mask"
        transform="translate(372.500000, 85.231724) rotate(164.000000) translate(-372.500000, -85.231724) "></path>
    </g>
  </g>
</svg>