<svg xmlns="http://www.w3.org/2000/svg" xmlns:xlink="http://www.w3.org/1999/xlink" viewBox="0 0 504.34 291.35"><defs><style>.cls-1{fill:url(#_ÂÁ_Ï_ÌÌ_È_ËÂÌÚ_2);}.cls-2{fill:url(#_ÂÁ_Ï_ÌÌ_È_ËÂÌÚ_2-2);}.cls-3{fill:url(#_ÂÁ_Ï_ÌÌ_È_ËÂÌÚ_2-3);}</style><linearGradient id="_ÂÁ_Ï_ÌÌ_È_ËÂÌÚ_2" x1="1.45" y1="124.69" x2="502.89" y2="166.65" gradientUnits="userSpaceOnUse"><stop offset="0" stop-color="#db5f9a"/><stop offset="0.14" stop-color="#d4609e"/><stop offset="0.33" stop-color="#c161ab"/><stop offset="0.56" stop-color="#a264bf"/><stop offset="0.82" stop-color="#7768dc"/><stop offset="1" stop-color="#556bf2"/></linearGradient><linearGradient id="_ÂÁ_Ï_ÌÌ_È_ËÂÌÚ_2-2" x1="5891.3" y1="2034.19" x2="5901.53" y2="2027.58" gradientTransform="matrix(0.87, 0.5, -1, 0.58, -2715.88, -3843.93)" xlink:href="#_ÂÁ_Ï_ÌÌ_È_ËÂÌÚ_2"/><linearGradient id="_ÂÁ_Ï_ÌÌ_È_ËÂÌÚ_2-3" x1="5770.95" y1="1805.78" x2="5778.22" y2="1801.07" gradientTransform="matrix(0.87, 0.5, -1, 0.58, -2715.88, -3843.93)" xlink:href="#_ÂÁ_Ï_ÌÌ_È_ËÂÌÚ_2"/></defs><title>homepage</title><g id="content"><path class="cls-1" d="M252.18,291.35c-64.56,0-129.1-14.19-178.24-42.56C26.26,221.26,0,184.64,0,145.67S26.26,70.08,73.93,42.55c98.28-56.74,258.19-56.73,356.47,0,47.68,27.52,73.94,64.15,73.94,103.12s-26.26,75.59-73.94,103.11l-.18-.32.18.32C381.27,277.16,316.72,291.35,252.18,291.35Zm0-290.62C187.75.73,123.34,14.89,74.3,43.2,26.87,70.59.74,107,.74,145.67s26.13,75.09,73.57,102.48c98.08,56.62,257.65,56.62,355.72,0,47.44-27.39,73.57-63.78,73.57-102.47S477.47,70.59,430,43.2C381,14.89,316.57.73,252.16.73Z"/><path class="cls-2" d="M365.29,280.33a13.15,13.15,0,0,1-11.88,0c-3.28-1.9-3.28-5,0-6.86a13.15,13.15,0,0,1,11.88,0C368.57,275.36,368.57,278.43,365.29,280.33Z"/><path class="cls-3" d="M485.58,87.09a9.3,9.3,0,0,1-8.44,0c-2.33-1.34-2.33-3.53,0-4.87a9.3,9.3,0,0,1,8.44,0C487.91,83.56,487.91,85.75,485.58,87.09Z"/></g></svg>