<svg xmlns="http://www.w3.org/2000/svg" xmlns:xlink="http://www.w3.org/1999/xlink" viewBox="0 0 348.48 424.48"><defs><style>.cls-1{isolation:isolate;}.cls-2{fill:url(#_ÂÁ_Ï_ÌÌ_È_ËÂÌÚ_2);}.cls-3{fill:url(#_ÂÁ_Ï_ÌÌ_È_ËÂÌÚ_2-2);}.cls-4{fill:url(#_ÂÁ_Ï_ÌÌ_È_ËÂÌÚ_4);}.cls-5{mix-blend-mode:multiply;fill:url(#_ÂÁ_Ï_ÌÌ_È_ËÂÌÚ_2-3);}.cls-6{fill:url(#_ÂÁ_Ï_ÌÌ_È_ËÂÌÚ_2-4);}.cls-7{fill:url(#_ÂÁ_Ï_ÌÌ_È_ËÂÌÚ_3);}</style><linearGradient id="_ÂÁ_Ï_ÌÌ_È_ËÂÌÚ_2" x1="411.67" y1="348.18" x2="121.92" y2="180.6" gradientUnits="userSpaceOnUse"><stop offset="0" stop-color="#db5f9a"/><stop offset="0.14" stop-color="#d4609e"/><stop offset="0.33" stop-color="#c161ab"/><stop offset="0.56" stop-color="#a264bf"/><stop offset="0.82" stop-color="#7768dc"/><stop offset="1" stop-color="#556bf2"/></linearGradient><linearGradient id="_ÂÁ_Ï_ÌÌ_È_ËÂÌÚ_2-2" x1="193.19" y1="382.44" x2="115.04" y2="331.26" xlink:href="#_ÂÁ_Ï_ÌÌ_È_ËÂÌÚ_2"/><linearGradient id="_ÂÁ_Ï_ÌÌ_È_ËÂÌÚ_4" x1="158.97" y1="322.92" x2="111.02" y2="406.13" gradientUnits="userSpaceOnUse"><stop offset="0" stop-color="#556bf2"/><stop offset="0.06" stop-color="#7768dc"/><stop offset="0.14" stop-color="#a264bf"/><stop offset="0.22" stop-color="#c161ab"/><stop offset="0.28" stop-color="#d4609e"/><stop offset="0.33" stop-color="#db5f9a"/><stop offset="0.64" stop-color="#556bf2"/></linearGradient><linearGradient id="_ÂÁ_Ï_ÌÌ_È_ËÂÌÚ_2-3" x1="161.18" y1="317.68" x2="138.62" y2="375.74" xlink:href="#_ÂÁ_Ï_ÌÌ_È_ËÂÌÚ_2"/><linearGradient id="_ÂÁ_Ï_ÌÌ_È_ËÂÌÚ_2-4" x1="81.89" y1="267.17" x2="337.22" y2="413.74" xlink:href="#_ÂÁ_Ï_ÌÌ_È_ËÂÌÚ_2"/><linearGradient id="_ÂÁ_Ï_ÌÌ_È_ËÂÌÚ_3" x1="139.86" y1="319.56" x2="218.47" y2="26.96" gradientUnits="userSpaceOnUse"><stop offset="0" stop-color="#6412b4"/><stop offset="1" stop-color="#981c26"/></linearGradient></defs><title>homepage</title><g class="cls-1"><g id="content"><path class="cls-2" d="M339.35,186.84,17.62,1.09C15.27-.27,13.14-.31,11.52.7h0L3.38,5.58,3.91,7,1.76,8.36.6,198.43l2.78,28.65,305.22,181L336.54,424,345,419h0c2.14-1,3.52-3.66,3.52-7.56V204.29C348.48,197.56,344.39,189.75,339.35,186.84Z"/><path class="cls-3" d="M77.22,368v-3.83l65.88,38.14,39.54-23.22a13.08,13.08,0,0,0,6.47-11.29V318.53l3.44,2v49.55A13.09,13.09,0,0,1,186,381.42l-42.9,24.77Z"/><path class="cls-4" d="M77.22,364.14l41.05-23.65A16.71,16.71,0,0,0,126.63,326l0-43.56,62.5,36.07v49.24a13.08,13.08,0,0,1-6.47,11.29L143.1,402.28Z"/><polygon class="cls-5" points="126.62 301.4 126.62 315.44 189.11 351.02 189.11 337.44 126.62 301.4"/><path class="cls-6" d="M330.86,423.38,9.13,237.64C4.09,234.72,0,226.91,0,220.18V206.87L340,403.16v13.32C340,423.21,335.91,426.3,330.86,423.38Z"/><path class="cls-7" d="M340,403.57,0,207.27V13.09C0,6.36,4.09,3.27,9.13,6.18L330.86,191.93c5.05,2.91,9.14,10.73,9.14,17.45Z"/></g></g></svg>