<svg xmlns="http://www.w3.org/2000/svg" viewBox="0 0 349.48 425.48"><defs><style>.cls-1{fill:none;stroke:#fff;stroke-miterlimit:10;}</style></defs><title>homepage</title><g id="content"><path class="cls-1" d="M337,424.52l8.42-5.06h0c2.14-1,3.52-3.66,3.52-7.56V204.79c0-6.73-4.09-14.54-9.13-17.45L18.12,1.59C15.77.23,13.64.19,12,1.2h0L3.88,6.08"/><path class="cls-1" d="M77.72,368.47v-3.83l65.88,38.14,39.54-23.22a13.08,13.08,0,0,0,6.47-11.29V342l3.44,2v26.55a13.09,13.09,0,0,1-6.55,11.34l-42.9,24.77Z"/><path class="cls-1" d="M77.72,364.64,118.77,341a16.71,16.71,0,0,0,8.36-14.47l0-20.56L189.61,342v26.24a13.08,13.08,0,0,1-6.47,11.29L143.6,402.78Z"/><path class="cls-1" d="M331.36,423.88,9.63,238.14C4.59,235.22.5,227.41.5,220.68V207.37l340,196.29V417C340.5,423.71,336.41,426.8,331.36,423.88Z"/><path class="cls-1" d="M340.5,404.07.5,207.77V13.59c0-6.73,4.09-9.82,9.13-6.91L331.36,192.43c5.05,2.91,9.14,10.73,9.14,17.45Z"/></g></svg>