<svg xmlns="http://www.w3.org/2000/svg" xmlns:xlink="http://www.w3.org/1999/xlink" viewBox="0 0 182.01 106.78"><defs><style>.cls-1{fill:url(#_ÂÁ_Ï_ÌÌ_È_ËÂÌÚ_2);}.cls-2{fill:url(#_ÂÁ_Ï_ÌÌ_È_ËÂÌÚ_6);}.cls-3{fill:url(#_ÂÁ_Ï_ÌÌ_È_ËÂÌÚ_5);}.cls-4{fill:url(#_ÂÁ_Ï_ÌÌ_È_ËÂÌÚ_2-2);}</style><linearGradient id="_ÂÁ_Ï_ÌÌ_È_ËÂÌÚ_2" x1="133.8" y1="76.9" x2="-102.91" y2="-59.1" gradientUnits="userSpaceOnUse"><stop offset="0" stop-color="#db5f9a"/><stop offset="0.14" stop-color="#d4609e"/><stop offset="0.33" stop-color="#c161ab"/><stop offset="0.56" stop-color="#a264bf"/><stop offset="0.82" stop-color="#7768dc"/><stop offset="1" stop-color="#556bf2"/></linearGradient><linearGradient id="_ÂÁ_Ï_ÌÌ_È_ËÂÌÚ_6" x1="133.58" y1="91.84" x2="182.01" y2="91.84" gradientUnits="userSpaceOnUse"><stop offset="0" stop-color="#db5f9a"/><stop offset="0.23" stop-color="#ac63b9"/><stop offset="0.46" stop-color="#8667d2"/><stop offset="0.67" stop-color="#6b69e3"/><stop offset="0.86" stop-color="#5b6aee"/><stop offset="1" stop-color="#556bf2"/></linearGradient><linearGradient id="_ÂÁ_Ï_ÌÌ_È_ËÂÌÚ_5" x1="-95.01" y1="-27.39" x2="123.2" y2="100.56" gradientUnits="userSpaceOnUse"><stop offset="0" stop-color="#db5f9a"/><stop offset="0.28" stop-color="#ad63b8"/><stop offset="0.61" stop-color="#7d67d7"/><stop offset="0.86" stop-color="#606aeb"/><stop offset="1" stop-color="#556bf2"/></linearGradient><linearGradient id="_ÂÁ_Ï_ÌÌ_È_ËÂÌÚ_2-2" x1="212.33" y1="117.92" x2="51.36" y2="28.77" xlink:href="#_ÂÁ_Ï_ÌÌ_È_ËÂÌÚ_2"/></defs><title>homepage</title><g id="content"><polygon class="cls-1" points="48.82 0 182.01 76.9 133.58 104.86 0 27.74 48.82 0"/><polygon class="cls-2" points="133.58 106.78 133.58 104.86 182.01 76.9 182.01 78.82 133.58 106.78"/><polygon class="cls-3" points="0 27.74 0 30.11 133.58 106.78 133.58 104.86 0 27.74"/><path class="cls-4" d="M142.89,71.27,161.82,82.2l-6.88,4-19-11Zm-88.43-22L94.28,72.23l6.88-4L61.4,45.37ZM19.72,21.45,38.65,32.38l-6.88,4-19-11Zm20.84,12L59.49,44.34l-6.88,4-19-11Zm62.51,35.88L122,80.22l-6.88,4-19-11Zm20.84,12,18.93,10.93-6.89,4-19-11ZM29.21,16.46,48.14,27.39l-6.88,4-19-11Zm20.84,12L69,39.35l-6.88,4-19-11Zm20.84,12L89.82,51.31l-6.89,4-19-11Zm20.84,12,18.93,10.93-6.89,4-19-11Zm20.83,12,18.93,10.93-6.88,4-19-11Zm20.84,12,18.93,10.93-6.88,4-19-11ZM38.71,11.47,57.64,22.4l-6.89,4-19-11Zm20.83,12L78.47,34.36l-6.88,4-19-11Zm20.84,12L99.31,46.32l-6.88,4-19-11Zm20.84,12,18.93,10.93-6.89,4-19-11Zm20.84,12L141,70.24l-6.89,4-19-11ZM48.2,6.48,67.13,17.41l-6.89,4-19-11ZM69,18.44,88,29.37l-6.89,4-19-11Zm20.83,12L108.8,41.33l-6.88,4-19-11Zm20.84,12,18.93,10.93-6.88,4-19-11Zm20.84,12,18.93,10.93-6.89,4-19-11Zm20.84,12,18.92,10.93-6.88,4-19-11Z"/></g></svg>