<svg xmlns="http://www.w3.org/2000/svg" viewBox="0 0 184.02 108.22"><defs><style>.cls-1{fill:none;stroke:#fff;stroke-miterlimit:10;}</style></defs><title>homepage</title><g id="content"><polygon class="cls-1" points="49.83 0.58 183.02 77.47 134.59 105.44 1.01 28.31 49.83 0.58"/><polygon class="cls-1" points="134.59 107.36 134.59 105.44 183.02 77.47 183.02 79.39 134.59 107.36"/><polygon class="cls-1" points="1.01 28.31 1.01 30.68 134.59 107.36 134.59 105.44 1.01 28.31"/><path class="cls-1" d="M143.9,71.85l18.93,10.93-6.88,4-19-11Zm-88.44-22L95.29,72.81l6.88-4L62.4,45.94ZM20.73,22,39.66,33l-6.89,4-19-11ZM41.57,34,60.49,44.91l-6.88,4-19-11Zm62.51,35.88L123,80.79l-6.89,4-19-11Zm20.84,12,18.92,10.93-6.88,4-19-11ZM30.22,17,49.15,28l-6.88,4-19-11ZM51.06,29,70,39.93l-6.89,4-19-11ZM71.9,41,90.82,51.88l-6.88,4-19-11Zm20.83,12,18.93,10.92-6.88,4-19-11Zm20.84,12L132.5,75.8l-6.88,4-19-11Zm20.84,12,18.93,10.92-6.89,4-19-11ZM39.71,12.05,58.64,23l-6.88,4-19-11ZM60.55,24,79.48,34.94l-6.88,4-19-11ZM81.39,36,100.32,46.9l-6.89,4-19-11Zm20.83,12,18.93,10.93-6.88,4-19-11Zm20.84,12L142,70.82l-6.88,4-19-11ZM49.2,7.06,68.13,18l-6.88,4-19-11ZM70,19,89,30l-6.88,4-19-11ZM90.88,31l18.93,10.93-6.88,4-19-11Zm20.84,12,18.93,10.93-6.89,4-19-11Zm20.83,12,18.93,10.93-6.88,4-19-11Zm20.84,12,18.93,10.93-6.88,4-19-11Z"/></g></svg>