<svg xmlns="http://www.w3.org/2000/svg" viewBox="0 0 121.76 73.76"><defs><style>.cls-1{fill:none;stroke:#fff;stroke-miterlimit:10;}</style></defs><title>homepage</title><g id="content"><path class="cls-1" d="M.52,46.68v2.6A2.11,2.11,0,0,0,1.77,51.4l36.6,21.12a8.17,8.17,0,0,0,7.36-.3l73.73-42.57a3,3,0,0,0,1.8-2.4h0v-3"/><path class="cls-1" d="M38.37,69.49,1.77,48.36c-1.88-1.09-1.65-3,.53-4.25L76,1.54a8.2,8.2,0,0,1,7.36-.31L120,22.36c1.88,1.09,1.65,3-.53,4.25L45.73,69.18A8.2,8.2,0,0,1,38.37,69.49Z"/><path class="cls-1" d="M76.14,2.62,2.76,45c-2.45.44-1.34,2,0,2.81l36.6,21.13a5.38,5.38,0,0,0,4.85,0l73.38-42.37Z"/><path class="cls-1" d="M102,15.4l-6.46-3.74c-.13-.07-.11-.2,0-.29l.07,0a.54.54,0,0,1,.51,0L102.63,15c.13.07.12.2,0,.29l-.08,0A.58.58,0,0,1,102,15.4Z"/><ellipse class="cls-1" cx="94.27" cy="10.56" rx="0.43" ry="0.25"/></g></svg>