<svg xmlns="http://www.w3.org/2000/svg" xmlns:xlink="http://www.w3.org/1999/xlink" viewBox="0 0 120.76 72.76"><defs><style>.cls-1{fill:url(#_ÂÁ_Ï_ÌÌ_È_ËÂÌÚ_2);}.cls-2{fill:url(#_ÂÁ_Ï_ÌÌ_È_ËÂÌÚ_5);}.cls-3{fill:url(#_ÂÁ_Ï_ÌÌ_È_ËÂÌÚ_3);}.cls-4{fill:#2a110c;}</style><linearGradient id="_ÂÁ_Ï_ÌÌ_È_ËÂÌÚ_2" x1="5763.07" y1="34.92" x2="5695.03" y2="69.05" gradientTransform="matrix(-1, 0, 0, 1, 5817.51, 0)" gradientUnits="userSpaceOnUse"><stop offset="0" stop-color="#db5f9a"/><stop offset="0.14" stop-color="#d4609e"/><stop offset="0.33" stop-color="#c161ab"/><stop offset="0.56" stop-color="#a264bf"/><stop offset="0.82" stop-color="#7768dc"/><stop offset="1" stop-color="#556bf2"/></linearGradient><linearGradient id="_ÂÁ_Ï_ÌÌ_È_ËÂÌÚ_5" x1="5685.08" y1="-6.27" x2="5806.98" y2="63.32" gradientTransform="matrix(-1, 0, 0, 1, 5817.51, 0)" gradientUnits="userSpaceOnUse"><stop offset="0" stop-color="#db5f9a"/><stop offset="0.28" stop-color="#ad63b8"/><stop offset="0.61" stop-color="#7d67d7"/><stop offset="0.86" stop-color="#606aeb"/><stop offset="1" stop-color="#556bf2"/></linearGradient><linearGradient id="_ÂÁ_Ï_ÌÌ_È_ËÂÌÚ_3" x1="1.26" y1="35.56" x2="117.09" y2="35.56" gradientUnits="userSpaceOnUse"><stop offset="0" stop-color="#6412b4"/><stop offset="1" stop-color="#981c26"/></linearGradient></defs><title>homepage</title><g id="content"><path class="cls-1" d="M120.76,23.71,82.89,3.77a8.17,8.17,0,0,0-7.36.31L0,46.18v2.6A2.11,2.11,0,0,0,1.27,50.9L37.87,72a8.17,8.17,0,0,0,7.36-.3L119,29.15a3,3,0,0,0,1.8-2.4h0Z"/><path class="cls-2" d="M37.87,69,1.27,47.86c-1.88-1.09-1.65-3,.53-4.25L75.53,1A8.2,8.2,0,0,1,82.89.73l36.6,21.13c1.88,1.09,1.65,3-.53,4.25L45.23,68.68A8.2,8.2,0,0,1,37.87,69Z"/><path class="cls-3" d="M75.64,2.12,2.26,44.48c-1.34.78-1.34,2,0,2.81l36.6,21.13a5.38,5.38,0,0,0,4.85,0l73.38-42.37Z"/><path class="cls-4" d="M101.51,14.9l-6.46-3.74c-.13-.07-.11-.2,0-.29l.07,0a.54.54,0,0,1,.51,0l6.46,3.73c.13.07.12.2,0,.29l-.08,0A.58.58,0,0,1,101.51,14.9Z"/><ellipse class="cls-4" cx="93.77" cy="10.06" rx="0.43" ry="0.25"/></g></svg>