<svg width="206px" height="183px" viewBox="0 0 206 183" version="1.1" xmlns="http://www.w3.org/2000/svg" xmlns:xlink="http://www.w3.org/1999/xlink">
	<defs>
		<linearGradient x1="103.885347%" y1="68.4290175%" x2="-2.08194783%" y2="50%" id="linearGradient-1">
			<stop stop-color="#5D26C1" offset="0%"></stop>
			<stop stop-color="#4BE1FF" offset="100%"></stop>
		</linearGradient>
	</defs>
	<g id="Page-1" stroke="none" stroke-width="1" fill="none" fill-rule="evenodd">
		<g id="Home---video-blob" transform="translate(-861.000000, -2723.000000)" fill="url(#linearGradient-1)" fill-rule="nonzero">
			<g id="Services" transform="translate(-609.000000, 1965.000000)">
				<g id="Hosting" transform="translate(1352.500000, 758.000000)">
					<g id="blob-shape-(2)" transform="translate(118.000000, 0.000000)">
						<path d="M161.245049,10.5979982 C177.760623,18.5974871 189.015003,37.3848581 196.106178,56.8578996 C203.197352,76.3766525 206.079571,96.5810758 204.569838,117.105479 C203.014354,137.58417 197.066917,158.382841 180.963089,162.176885 C164.90501,165.925217 138.644789,152.714632 118.972498,155.731582 C99.3002077,158.794244 86.1243479,178.08444 72.2164959,182.152751 C58.3086439,186.221063 43.6230501,175.06749 35.3423882,160.896966 C27.0617263,146.772155 25.1859963,129.630393 18.1863208,110.523042 C11.1408958,91.3699802 -1.02847476,70.2513296 0.0695135581,49.9097721 C1.16750187,29.613926 15.5785985,10.0951732 34.6561455,3.2384684 C53.7336925,-3.57252499 77.4776899,2.23281837 100.215198,3.78700478 C122.998456,5.34119119 144.775224,2.55279792 161.245049,10.5979982 Z" id="Path"></path>
					</g>
				</g>
			</g>
		</g>
	</g>
</svg>
