<svg width="210px" height="196px" viewBox="0 0 210 196" version="1.1" xmlns="http://www.w3.org/2000/svg" xmlns:xlink="http://www.w3.org/1999/xlink">
	<defs>
		<linearGradient x1="102.372411%" y1="50%" x2="-2.22044605e-14%" y2="50%" id="linearGradient-1">
			<stop stop-color="#FF0099" offset="0%"></stop>
			<stop stop-color="#F27121" offset="100%"></stop>
		</linearGradient>
	</defs>
	<g id="Page-1" stroke="none" stroke-width="1" fill="none" fill-rule="evenodd">
		<g id="Home---video-blob" transform="translate(-335.000000, -2721.000000)" fill="url(#linearGradient-1)" fill-rule="nonzero">
			<g id="Services" transform="translate(-609.000000, 1965.000000)">
				<g id="Support" transform="translate(861.500000, 756.000000)">
					<g id="Hosting-blob" transform="translate(82.000000, 0.000000)">
						<path d="M154.640243,1.40550769 C176.130897,6.20632395 194.959421,24.1972617 204.10747,46.0676469 C213.255519,67.9865252 212.771495,93.784851 198.589599,109.933051 C184.407703,126.129744 156.527935,132.724805 140.11953,146.205885 C123.759527,159.638472 118.774083,179.957078 106.818696,189.461725 C94.8633093,198.917878 75.9379806,197.511578 61.7560847,189.122273 C47.5741888,180.684475 38.2325304,165.215178 30.2945409,151.200674 C22.4049538,137.18617 16.0158403,124.626458 9.77193387,109.399627 C3.52802749,94.1727957 -2.5222694,76.3273373 2.80199186,63.234202 C8.07785074,50.1410667 24.7282678,41.8002546 40.2654302,34.3323182 C55.850995,26.8158887 70.3233051,20.1238418 89.6358528,12.5589192 C108.9484,5.0424897 133.101186,-3.39530858 154.640243,1.40550769 Z" id="Path"></path>
					</g>
				</g>
			</g>
		</g>
	</g>
</svg>
