<svg class="project__blob blob blob--pink" width="369px" height="285px" viewBox="0 0 369 285" version="1.1"
  xmlns="http://www.w3.org/2000/svg" xmlns:xlink="http://www.w3.org/1999/xlink">
  <defs>
    <linearGradient x1="102.372411%" y1="50%" x2="-2.22044605e-14%" y2="50%" id="linearGradient-3">
      <stop stop-color="#FF0099" offset="0%"></stop>
      <stop stop-color="#493240" offset="100%"></stop>
    </linearGradient>
  </defs>
  <g id="Page-1" stroke="none" stroke-width="1" fill="none" fill-rule="evenodd" opacity="0.8">
    <g id="Home" transform="translate(-722.000000, -900.000000)" fill="url(#linearGradient-3)" fill-rule="nonzero">
      <g id="Section:-Portfolio" transform="translate(233.000000, 935.000000)">
        <g id="Silou">
          <g id="blob-shape-(10)">
            <g transform="translate(684.140610, 110.500000) rotate(45.000000) translate(-684.140610, -110.500000) translate(527.140610, -54.000000)"
              id="Path">
              <path d="M254.694945,26.0974239 C287.859559,46.1189466 317.674212,74.8164623 313.068016,104.264785 C308.461819,133.796531 269.434774,164.162507 253.103714,198.03225 C236.856403,231.985415 243.305078,269.442347 229.570238,288.546217 C215.919147,307.566663 182.16829,308.234047 142.973747,315.575272 C103.862952,322.833074 59.39222,336.84814 38.1199677,320.246961 C16.9314645,303.562359 18.9414411,256.344934 13.4140055,216.88585 C7.88656983,177.426766 -5.09452899,145.726022 3.28037348,121.283079 C11.739025,96.9235603 41.6374268,79.73842 69.3583539,58.0484371 C97.1630301,36.2750312 122.706483,9.91335977 153.86112,2.40528877 C184.932008,-5.18620523 221.530332,6.15932427 254.694945,26.0974239 Z"></path>
            </g>
          </g>
        </g>
      </g>
    </g>
  </g>
</svg>