<svg width="761" height="594" xmlns="http://www.w3.org/2000/svg">
  <defs>
    <linearGradient x1="100%" y1="50%" x2="0%" y2="50%" id="a">
      <stop stop-color="#E100FF" offset="0%"/>
      <stop stop-color="#7F00FF" offset="100%"/>
    </linearGradient>
    <linearGradient x1="100%" y1="50%" x2="0%" y2="50%" id="b">
      <stop stop-color="#E100FF" offset="0%"/>
      <stop stop-color="#7F00FF" offset="100%"/>
    </linearGradient>
    <linearGradient x1="100%" y1="50%" x2="0%" y2="50%" id="c">
      <stop stop-color="#E100FF" offset="0%"/>
      <stop stop-color="#7F00FF" offset="100%"/>
    </linearGradient>
    <linearGradient x1="100%" y1="50%" x2="0%" y2="50%" id="d">
      <stop stop-color="#E100FF" offset="0%"/>
      <stop stop-color="#7F00FF" offset="100%"/>
    </linearGradient>
    <linearGradient x1="100%" y1="50%" x2="0%" y2="50%" id="e">
      <stop stop-color="#E100FF" offset="0%"/>
      <stop stop-color="#7F00FF" offset="100%"/>
    </linearGradient>
  </defs>
  <g stroke-width="5" fill="none" fill-rule="evenodd">
    <path d="M444.3 190.903c28.935 17.821 66.027 27.395 97.807 55.265s58.246 73.94 54.547 117.924c-3.7 44.08-37.472 85.978-79.592 97.448-42.12 11.47-92.492-7.584-128.161-27.775-35.67-20.19-56.73-41.614-99.608-52.8-42.784-11.186-107.481-12.228-125.6-35.927-18.025-23.793 10.53-70.147 33.107-111.952 22.578-41.709 39.18-78.868 67.828-96.784 28.554-17.916 69.062-16.59 99.608-2.844 30.546 13.65 51.227 39.624 80.065 57.445z" stroke="url(#a)" opacity=".2" transform="translate(3 3)"/>
    <path d="M455.866 172.816c33.943 20.948 77.456 32.202 114.738 64.96 37.28 32.76 68.33 86.911 63.99 138.612-4.34 51.813-43.96 101.062-93.37 114.545-49.412 13.482-108.506-8.914-150.35-32.648-41.844-23.733-66.55-48.915-116.851-62.063-50.191-13.148-126.09-14.374-147.345-42.23-21.145-27.967 12.353-82.454 38.84-131.592 26.486-49.027 45.96-92.705 79.57-113.765 33.497-21.059 81.017-19.499 116.852-3.342 35.834 16.045 60.095 46.575 93.926 67.523z" stroke="url(#b)" opacity=".4" transform="translate(3 3)"/>
    <path d="M471.083 149.302c40.533 25.013 92.496 38.45 137.016 77.565 44.52 39.115 81.599 103.775 76.416 165.507-5.183 61.866-52.494 120.671-111.5 136.77-59.006 16.098-129.575-10.644-179.544-38.982-49.97-28.339-79.472-58.407-139.541-74.106-59.937-15.7-150.572-17.163-175.955-50.424-25.25-33.394 14.75-98.452 46.38-157.125 31.63-58.54 54.887-110.693 95.022-135.838 40.002-25.145 96.748-23.283 139.54-3.99 42.794 19.157 71.765 55.611 112.166 80.623h0z" stroke="url(#c)" opacity=".6" transform="translate(3 3)"/>
    <path d="M483.256 130.612c45.806 28.243 104.528 43.417 154.84 87.584s92.213 117.18 86.356 186.885c-5.857 69.856-59.323 136.258-126.005 154.435-66.681 18.178-146.43-12.018-202.898-44.017-56.47-31.998-89.81-65.95-157.693-83.677-67.733-17.727-170.16-19.38-198.844-56.937-28.535-37.708 16.67-111.17 52.414-177.42C127.17 131.363 153.452 72.473 198.808 44.08c45.205-28.393 109.334-26.29 157.693-4.506 48.36 21.633 81.1 62.795 126.755 91.038z" stroke="url(#d)" opacity=".8" transform="translate(3 3)"/>
    <path d="M492.386 116.746c49.76 30.64 113.552 47.1 168.208 95.016 54.655 47.916 100.173 127.124 93.81 202.746-6.362 75.786-64.444 147.823-136.882 167.543s-159.07-13.038-220.415-47.753c-61.344-34.714-97.563-71.548-171.307-90.78-73.58-19.23-184.848-21.024-216.01-61.768-30.998-40.908 18.11-120.605 56.94-192.479 38.829-71.71 67.38-135.598 116.65-166.4 49.11-30.805 118.774-28.523 171.308-4.89 52.534 23.47 88.1 68.124 137.698 98.765z" stroke="url(#e)" transform="translate(3 3)"/>
  </g>
</svg>
